#!OML:ASF F:\VICON\USERDATA\Patient Classification 1\PLAYGROUND\JustinFriday\JustinFriday.ASF
:FULLY-SPECIFIED
:DEGREES
4164
root -1.30561 17.8325 39.3829 -720.18 -183.599 -0.156173
lowerback 9.57927 0.451959 -5.24787
upperback 2.57253 0.32246 0.759216
thorax -2.7153 0.26713 3.70422
lowerneck -3.60278 -9.81614 -9.11847
upperneck 4.89088 -13.3127 12.341
head 3.4941 -6.36277 4.5181
rclavicle -3.06874e-015 4.17448e-015
rhumerus -25.5442 -17.355 -75.756
rradius 18.9956
rwrist -3.22053
rhand -20.4141 -27.7135
rfingers 7.12502
rthumb 5.94006 -417.61
lclavicle -3.06874e-015 4.17448e-015
lhumerus -27.9414 6.82421 78.1445
lradius 26.5633
lwrist -3.38789
lhand -12.8356 -6.40281
lfingers 7.12502
lthumb 13.2517 23.1559
rfemur -24.7275 -4.7696 17.1639
rtibia 68.5217
rfoot -2.85257 1.37004
rtoes 12.6406
lfemur -1.80562 2.72343 -16.1167
ltibia 18.477
lfoot -9.52133 7.46938
ltoes -5.05854
4165
root -1.32487 17.8244 39.2763 -720.263 -184.515 -0.311261
lowerback 9.72622 0.583946 -5.56936
upperback 2.62724 0.465623 0.764401
thorax -2.75495 0.342114 3.87418
lowerneck -3.83201 -9.80923 -9.23302
upperneck 5.02143 -13.3133 12.7094
head 3.6056 -6.33676 4.63253
rclavicle -6.85807e-015 8.74653e-015
rhumerus -25.7562 -16.5906 -75.9339
rradius 19.3173
rwrist -6.01049
rhand -21.6507 -24.4165
rfingers 7.12502
rthumb 4.74605 -414.343
lclavicle -6.85807e-015 8.74653e-015
lhumerus -27.46 5.36884 78.5799
lradius 27.2597
lwrist -2.1264
lhand -13.1841 -7.6337
lfingers 7.12502
lthumb 12.9157 21.9466
rfemur -25.5595 -5.10372 17.2042
rtibia 67.3241
rfoot -3.69928 1.2127
rtoes 8.59916
lfemur -1.28092 3.06561 -16.3888
ltibia 18.6813
lfoot -9.81927 8.09979
ltoes -5.41371
4166
root -1.34483 17.8151 39.1796 -720.276 -185.244 -0.216998
lowerback 9.90855 0.571752 -5.51762
upperback 2.6311 0.446922 0.813865
thorax -2.84977 0.335915 3.89855
lowerneck -3.88864 -9.77237 -9.52816
upperneck 5.21388 -13.2828 13.1068
head 3.71766 -6.30345 4.79408
rclavicle 6.84565e-015 5.26779e-015
rhumerus -26.035 -16.5451 -75.8218
rradius 19.8621
rwrist -6.22323
rhand -21.734 -24.879
rfingers 7.12502
rthumb 4.66565 -414.808
lclavicle 6.84565e-015 5.26779e-015
lhumerus -27.0805 4.24326 78.8138
lradius 28.1394
lwrist -1.19328
lhand -13.7838 -7.51753
lfingers 7.12502
lthumb 12.3376 22.0985
rfemur -26.4466 -5.60111 17.5797
rtibia 65.8957
rfoot -4.0909 0.785869
rtoes 4.68083
lfemur -0.897983 3.43037 -16.3636
ltibia 18.9333
lfoot -10.4119 8.55346
ltoes -5.48651
4167
root -1.39363 17.8223 39.0578 -720.815 -181.718 0.245793
lowerback 10.7992 -0.997392 -4.10459
upperback 2.79969 -1.49032 0.86987
thorax -2.99188 -0.616331 3.40818
lowerneck -4.11058 -9.77676 -9.47899
upperneck 5.52498 -13.2973 12.9889
head 3.83743 -6.29897 4.73334
rclavicle 2.16551e-014 -1.56046e-014
rhumerus -26.2077 -16.2933 -75.9508
rradius 20.5105
rwrist -6.57485
rhand -22.9788 -27.1029
rfingers 7.12502
rthumb 3.46353 -417.055
lclavicle 2.16551e-014 -1.56046e-014
lhumerus -26.6327 3.27249 78.8972
lradius 28.9618
lwrist -0.439633
lhand -14.1404 -6.7117
lfingers 7.12502
lthumb 11.9937 22.9247
rfemur -25.5764 -9.74958 17.9364
rtibia 64.1522
rfoot -4.95139 0.543053
rtoes 5.76984
lfemur -0.569777 1.04905 -15.8879
ltibia 19.2781
lfoot -10.7927 7.5052
ltoes -5.5419
4168
root -1.41402 17.792 38.9619 -720.904 -182.28 0.196667
lowerback 11.1266 -1.1451 -4.00949
upperback 2.83746 -1.6815 0.822238
thorax -3.12005 -0.7053 3.33736
lowerneck -4.18627 -9.64625 -9.2856
upperneck 5.27569 -13.0977 12.8174
head 3.72764 -6.20899 4.66982
rclavicle -2.77056e-014 8.94531e-016
rhumerus -26.3256 -15.4394 -76.3481
rradius 21.3264
rwrist -7.74166
rhand -23.8766 -28.4656
rfingers 7.12502
rthumb 2.59651 -418.43
lclavicle -2.77056e-014 8.94531e-016
lhumerus -26.1527 2.71241 78.8024
lradius 29.604
lwrist 0.352567
lhand -14.8671 -6.83232
lfingers 7.12502
lthumb 11.2929 22.8437
rfemur -26.1094 -10.1588 18.0179
rtibia 62.5655
rfoot -5.31592 0.766293
rtoes 5.09924
lfemur -0.160516 0.861334 -16.0995
ltibia 19.5931
lfoot -11.2556 8.16135
ltoes -5.19277
4169
root -1.42012 17.7633 38.8683 -720.779 -183.27 0.0301824
lowerback 11.1209 -1.02827 -4.32275
upperback 2.83518 -1.56518 0.79983
thorax -3.12021 -0.647205 3.47566
lowerneck -4.211 -9.53001 -9.36973
upperneck 5.04709 -12.9283 13.0288
head 3.66495 -6.12332 4.76411
rclavicle 1.20265e-014 -4.96962e-016
rhumerus -26.6635 -14.5118 -76.7134
rradius 22.3224
rwrist -9.66258
rhand -23.9211 -27.4671
rfingers 7.12502
rthumb 2.55358 -417.432
lclavicle 1.20265e-014 -4.96962e-016
lhumerus -25.6019 2.7995 78.4318
lradius 30.268
lwrist -1.14961
lhand -15.5169 -6.87505
lfingers 7.12502
lthumb 10.6662 22.8342
rfemur -26.8974 -10.0101 18.1381
rtibia 60.9034
rfoot -5.71167 0.732799
rtoes 9.59822
lfemur 0.153911 1.00741 -16.3979
ltibia 19.6622
lfoot -11.4526 8.93858
ltoes -5.63868
4170
root -1.40757 17.7495 38.7974 -720.435 -184.035 -0.290667
lowerback 11.1887 -0.859181 -5.07978
upperback 2.70422 -1.44419 0.8258
thorax -3.2828 -0.581308 3.91926
lowerneck -4.26549 -9.53587 -9.55218
upperneck 5.14058 -12.9478 13.3224
head 3.73699 -6.11916 4.87558
rclavicle 6.18717e-015 -1.30204e-014
rhumerus -27.0311 -14.2978 -76.8037
rradius 23.2013
rwrist -10.6559
rhand -22.8103 -26.716
rfingers 7.12502
rthumb 3.62629 -416.665
lclavicle 6.18717e-015 -1.30204e-014
lhumerus -25.0054 2.21674 78.3638
lradius 30.7762
lwrist -0.974309
lhand -16.9294 -7.58945
lfingers 7.12502
lthumb 9.3035 22.1853
rfemur -28.0267 -9.81041 18.2148
rtibia 59.2546
rfoot -6.16196 0.385843
rtoes 11.7037
lfemur 0.0653656 1.72546 -16.6811
ltibia 19.8207
lfoot -11.5845 9.05195
ltoes -6.78909
4171
root -1.41537 17.7386 38.6721 -720.459 -185.91 -0.69076
lowerback 10.7758 -0.472952 -5.60099
upperback 2.83296 -0.96645 0.709303
thorax -2.96113 -0.353546 4.01913
lowerneck -4.16838 -9.43877 -9.64599
upperneck 5.06307 -12.817 13.4228
head 3.69557 -6.05916 4.9379
rclavicle -1.83503e-014 -1.98785e-016
rhumerus -27.1368 -14.375 -76.8455
rradius 23.6831
rwrist -10.9193
rhand -21.2697 -26.0618
rfingers 7.12502
rthumb 5.11398 -415.98
lclavicle -1.83503e-014 -1.98785e-016
lhumerus -24.4178 1.70782 78.2255
lradius 31.2346
lwrist -0.00538992
lhand -18.1703 -8.02476
lfingers 7.12502
lthumb 8.10595 21.7998
rfemur -28.809 -8.93197 18.0138
rtibia 57.415
rfoot -6.25967 0.420739
rtoes 11.4712
lfemur 0.798694 2.61087 -17.3063
ltibia 19.859
lfoot -12.1749 9.99157
ltoes -6.5558
4172
root -1.40642 17.723 38.57 -720.03 -187.375 -0.957517
lowerback 10.2988 -0.229779 -6.16903
upperback 2.75767 -0.694751 0.683597
thorax -2.79799 -0.227582 4.27309
lowerneck -4.39195 -9.34238 -9.5101
upperneck 5.29451 -12.6841 13.1348
head 3.75748 -5.99063 4.82662
rclavicle 1.74931e-014 -1.0635e-014
rhumerus -27.1841 -14.768 -76.8027
rradius 23.9819
rwrist -11.0577
rhand -21.0351 -26.0198
rfingers 7.12502
rthumb 5.34043 -415.933
lclavicle 1.74931e-014 -1.0635e-014
lhumerus -23.8924 1.30082 77.995
lradius 31.862
lwrist 1.00426
lhand -19.4822 -7.44935
lfingers 7.12502
lthumb 6.83967 22.4202
rfemur -30.0927 -8.40307 18.217
rtibia 55.4024
rfoot -5.94367 0.0648326
rtoes 9.57669
lfemur 0.941739 3.61123 -17.653
ltibia 19.6978
lfoot -12.4421 10.3916
ltoes -6.2301
4173
root -1.39639 17.7072 38.4766 -719.566 -188.624 -1.11143
lowerback 10.0418 -0.0606331 -6.58493
upperback 2.61716 -0.518063 0.677705
thorax -2.81904 -0.141765 4.47902
lowerneck -4.54563 -9.25696 -9.32002
upperneck 5.20178 -12.5504 12.9079
head 3.71232 -5.92847 4.73401
rclavicle -8.60986e-015 1.85864e-014
rhumerus -27.3416 -14.9991 -76.8644
rradius 24.4116
rwrist -11.2751
rhand -21.8922 -26.3782
rfingers 7.12502
rthumb 4.51286 -416.31
lclavicle -8.60986e-015 1.85864e-014
lhumerus -23.3846 1.24689 77.6432
lradius 32.4243
lwrist 1.58669
lhand -16.3349 -7.33035
lfingers 7.12502
lthumb 9.8771 22.418
rfemur -31.1166 -8.02669 18.6124
rtibia 53.2214
rfoot -5.76685 -0.468551
rtoes 6.30226
lfemur 1.06853 4.37028 -17.9029
ltibia 19.4534
lfoot -12.6095 10.915
ltoes -6.72147
